<?xml version="1.0" encoding="UTF-8" standalone="no"?>
<!-- Created with Inkscape (http://www.inkscape.org/) -->

<svg
   version="1.1"
   id="svg1"
   width="453.54666"
   height="151.18668"
   viewBox="0 0 453.54666 151.18668"
   sodipodi:docname="E+H_Logo_Standard_noClaim_white.eps"
   xmlns:inkscape="http://www.inkscape.org/namespaces/inkscape"
   xmlns:sodipodi="http://sodipodi.sourceforge.net/DTD/sodipodi-0.dtd"
   xmlns="http://www.w3.org/2000/svg"
   xmlns:svg="http://www.w3.org/2000/svg">
  <defs
     id="defs1" />
  <sodipodi:namedview
     id="namedview1"
     pagecolor="#ffffff"
     bordercolor="#000000"
     borderopacity="0.25"
     inkscape:showpageshadow="2"
     inkscape:pageopacity="0.0"
     inkscape:pagecheckerboard="0"
     inkscape:deskcolor="#d1d1d1">
    <inkscape:page
       x="0"
       y="0"
       inkscape:label="1"
       id="page1"
       width="453.54666"
       height="151.18668"
       margin="0"
       bleed="0" />
  </sodipodi:namedview>
  <g
     id="g1"
     inkscape:groupmode="layer"
     inkscape:label="1">
    <g
       id="group-R5">
      <path
         id="path2"
         d="m 246.93,636.887 h 120.019 v -26.864 h -88.73 v -71.394 h 71.738 V 511.77 h -71.738 v -81.942 h 93.144 V 402.629 H 246.93 v 234.258"
         style="fill:#ffffff;fill-opacity:1;fill-rule:nonzero;stroke:none"
         transform="matrix(0.13333333,0,0,-0.13333333,0,151.18667)" />
      <path
         id="path3"
         d="m 409.684,572.961 h 22.773 l 4.414,-21.074 c 14.961,14.961 31.973,25.5 52.031,25.5 24.473,0 41.133,-12.578 41.133,-41.485 V 402.629 h -29.238 v 124.094 c 0,19.382 -5.449,24.824 -20.742,24.824 -13.594,0 -28.907,-9.524 -41.133,-20.402 V 402.629 h -29.238 v 170.332"
         style="fill:#ffffff;fill-opacity:1;fill-rule:nonzero;stroke:none"
         transform="matrix(0.13333333,0,0,-0.13333333,0,151.18667)" />
      <path
         id="path4"
         d="m 673.453,441.73 v 92.141 c -9.863,9.512 -23.457,18.359 -37.734,18.359 -24.141,0 -34.688,-8.847 -34.688,-63.585 0,-54.735 8.848,-65.27 31.973,-65.27 16.66,0 28.223,6.797 40.449,18.355 z m -103.691,44.875 c 0,63.915 18.691,90.782 58.476,90.782 18.692,0 34.336,-10.207 45.215,-20.742 v 92.136 h 29.238 V 402.629 h -22.773 l -4.766,17.676 c -12.91,-14.278 -29.238,-22.09 -47.246,-22.09 -32.656,0 -58.144,18.359 -58.144,88.39"
         style="fill:#ffffff;fill-opacity:1;fill-rule:nonzero;stroke:none"
         transform="matrix(0.13333333,0,0,-0.13333333,0,151.18667)" />
      <path
         id="path5"
         d="m 751.539,572.961 h 22.774 l 4.765,-24.141 c 12.578,15.645 28.223,27.207 47.949,27.207 2.032,0 4.746,-0.339 6.114,-1.023 l -3.399,-31.281 c -3.066,1.027 -6.797,1.359 -10.195,1.359 -15.645,0 -26.192,-5.773 -38.77,-17.332 V 402.629 h -29.238 v 170.332"
         style="fill:#ffffff;fill-opacity:1;fill-rule:nonzero;stroke:none"
         transform="matrix(0.13333333,0,0,-0.13333333,0,151.18667)" />
      <path
         id="path6"
         d="m 881.988,503.266 h 67.657 c 0,39.101 -8.848,50.996 -33.321,50.996 -19.726,0 -31.953,-10.196 -34.336,-50.996 z m -31.621,-15.305 c 0,64.602 26.524,89.426 66.641,89.426 40.449,0 63.574,-23.125 63.574,-84.66 v -11.559 h -98.945 c 0.683,-46.582 10.879,-58.125 39.101,-58.125 18.36,0 28.907,7.129 40.117,15.965 l 15.997,-21.086 c -16.661,-13.594 -31.973,-19.707 -56.797,-19.707 -44.532,0 -69.688,25.84 -69.688,89.746"
         style="fill:#ffffff;fill-opacity:1;fill-rule:nonzero;stroke:none"
         transform="matrix(0.13333333,0,0,-0.13333333,0,151.18667)" />
      <path
         id="path7"
         d="m 1003.35,416.574 12.25,21.75 c 14.28,-9.855 28.91,-15.636 45.57,-15.636 23.1,0 30.25,9.179 30.25,25.156 0,19.043 -8.85,22.785 -36.03,30.265 -23.81,6.454 -43.52,19.032 -43.52,52.696 0,24.824 15.98,46.582 53.38,46.582 20.39,0 34.67,-4.082 47.25,-11.219 l -10.2,-23.117 c -14.28,7.137 -23.13,9.512 -36.04,9.512 -18.35,0 -26.85,-6.458 -26.85,-21.075 0,-15.984 7.13,-20.058 30.59,-26.523 26.19,-7.141 49.98,-17.336 49.98,-55.762 0,-35.344 -20.06,-50.988 -60.18,-50.988 -22.77,0 -44.53,8.832 -56.45,18.359"
         style="fill:#ffffff;fill-opacity:1;fill-rule:nonzero;stroke:none"
         transform="matrix(0.13333333,0,0,-0.13333333,0,151.18667)" />
      <path
         id="path8"
         d="m 1142.42,416.574 12.24,21.75 c 14.28,-9.855 28.89,-15.636 45.55,-15.636 23.13,0 30.27,9.179 30.27,25.156 0,19.043 -8.84,22.785 -36.05,30.265 -23.79,6.454 -43.52,19.032 -43.52,52.696 0,24.824 15.98,46.582 53.38,46.582 20.41,0 34.69,-4.082 47.27,-11.219 l -10.2,-23.117 c -14.27,7.137 -23.12,9.512 -36.05,9.512 -18.36,0 -26.86,-6.458 -26.86,-21.075 0,-15.984 7.15,-20.058 30.61,-26.523 26.17,-7.141 49.98,-17.336 49.98,-55.762 0,-35.344 -20.06,-50.988 -60.18,-50.988 -22.79,0 -44.55,8.832 -56.44,18.359"
         style="fill:#ffffff;fill-opacity:1;fill-rule:nonzero;stroke:none"
         transform="matrix(0.13333333,0,0,-0.13333333,0,151.18667)" />
      <path
         id="path9"
         d="m 1365.44,489.328 h -54.72 v 25.5 h 54.72 v 60.176 h 27.54 v -60.176 h 54.42 v -25.5 h -54.42 v -60.183 h -27.54 v 60.183"
         style="fill:#ffffff;fill-opacity:1;fill-rule:nonzero;stroke:none"
         transform="matrix(0.13333333,0,0,-0.13333333,0,151.18667)" />
      <path
         id="path10"
         d="m 1514.37,636.887 h 31.29 v -95.879 h 84.32 v 95.879 h 31.27 V 402.629 h -31.27 v 110.84 h -84.32 v -110.84 h -31.29 v 234.258"
         style="fill:#ffffff;fill-opacity:1;fill-rule:nonzero;stroke:none"
         transform="matrix(0.13333333,0,0,-0.13333333,0,151.18667)" />
      <path
         id="path11"
         d="m 1793.73,441.73 v 45.215 h -10.19 c -42.84,0 -51,-10.879 -51,-35.703 0,-22.422 7.15,-29.902 23.81,-29.902 16.66,0 29.24,11.211 37.38,20.39 z m -92.46,9.512 c 0,38.762 22.77,56.789 78.54,56.789 h 13.92 v 13.25 c 0,19.043 -2.36,30.606 -24.47,30.606 -17.68,0 -34.67,-7.481 -49.63,-15.645 l -11.24,22.442 c 17.35,10.207 36.73,18.703 63.93,18.703 33.33,0 50.67,-14.961 50.67,-51.34 V 402.629 h -22.79 l -4.77,17.012 c -9.84,-10.899 -24.12,-21.426 -42.83,-21.426 -32.64,0 -51.33,18.008 -51.33,53.027"
         style="fill:#ffffff;fill-opacity:1;fill-rule:nonzero;stroke:none"
         transform="matrix(0.13333333,0,0,-0.13333333,0,151.18667)" />
      <path
         id="path12"
         d="m 1867.7,441.73 v 131.231 h 29.23 V 450.91 c 0,-20.066 6.8,-26.855 22.09,-26.855 13.62,0 28.23,9.172 40.8,20.39 v 128.516 h 29.24 V 402.629 h -22.77 l -4.41,21.074 c -14.3,-14.609 -30.61,-25.488 -50.67,-25.488 -24.49,0 -43.51,13.945 -43.51,43.515"
         style="fill:#ffffff;fill-opacity:1;fill-rule:nonzero;stroke:none"
         transform="matrix(0.13333333,0,0,-0.13333333,0,151.18667)" />
      <path
         id="path13"
         d="m 2023.4,416.574 12.25,21.75 c 14.27,-9.855 28.9,-15.636 45.56,-15.636 23.13,0 30.26,9.179 30.26,25.156 0,19.043 -8.85,22.785 -36.04,30.265 -23.81,6.454 -43.52,19.032 -43.52,52.696 0,24.824 15.98,46.582 53.38,46.582 20.39,0 34.67,-4.082 47.25,-11.219 l -10.2,-23.117 c -14.27,7.137 -23.12,9.512 -36.03,9.512 -18.36,0 -26.86,-6.458 -26.86,-21.075 0,-15.984 7.13,-20.058 30.59,-26.523 26.19,-7.141 49.98,-17.336 49.98,-55.762 0,-35.344 -20.06,-50.988 -60.18,-50.988 -22.77,0 -44.53,8.832 -56.44,18.359"
         style="fill:#ffffff;fill-opacity:1;fill-rule:nonzero;stroke:none"
         transform="matrix(0.13333333,0,0,-0.13333333,0,151.18667)" />
      <path
         id="path14"
         d="m 2199.86,503.266 h 67.66 c 0,39.101 -8.83,50.996 -33.32,50.996 -19.71,0 -31.95,-10.196 -34.34,-50.996 z m -31.62,-15.305 c 0,64.602 26.53,89.426 66.64,89.426 40.47,0 63.58,-23.125 63.58,-84.66 v -11.559 h -98.93 c 0.67,-46.582 10.88,-58.125 39.1,-58.125 18.36,0 28.89,7.129 40.12,15.965 l 15.98,-21.086 c -16.66,-13.594 -31.98,-19.707 -56.78,-19.707 -44.55,0 -69.71,25.84 -69.71,89.746"
         style="fill:#ffffff;fill-opacity:1;fill-rule:nonzero;stroke:none"
         transform="matrix(0.13333333,0,0,-0.13333333,0,151.18667)" />
      <path
         id="path15"
         d="m 2335.74,572.961 h 22.8 l 4.74,-24.141 c 12.58,15.645 28.22,27.207 47.95,27.207 2.03,0 4.77,-0.339 6.11,-1.023 l -3.39,-31.281 c -3.07,1.027 -6.8,1.359 -10.2,1.359 -15.64,0 -26.19,-5.773 -38.77,-17.332 V 402.629 h -29.24 v 170.332"
         style="fill:#ffffff;fill-opacity:1;fill-rule:nonzero;stroke:none"
         transform="matrix(0.13333333,0,0,-0.13333333,0,151.18667)" />
      <path
         id="path16"
         d="m 3054.9,442.434 c 0,-4.391 -3.57,-7.957 -7.95,-7.957 h -78.3 v 98.195 h -26.54 v -98.195 h -86.25 v 98.195 h -72.4 l 19.55,72.976 h 52.85 v 98.204 h 86.25 v -98.204 h 26.54 v 98.204 h 78.3 c 4.38,0 7.95,-3.575 7.95,-7.969 z m -225.58,-7.957 h -193.73 c -4.4,0 -7.97,3.566 -7.97,7.957 v 253.449 c 0,4.394 3.57,7.969 7.97,7.969 h 193.73 l -19.55,-72.989 h -95.9 v -25.215 h 65.78 l -19.55,-72.976 h -46.23 v -25.219 h 115.45 z m 295.84,299.863 c -3.36,0.898 -6.82,1.348 -10.32,1.348 h -479.25 c -18.03,0 -33.79,-12.102 -38.46,-29.504 l -67.91,-253.446 c -5.68,-21.23 6.91,-43.058 28.14,-48.738 3.36,-0.922 6.84,-1.371 10.32,-1.371 h 479.27 c 18.01,0 33.77,12.109 38.44,29.504 l 67.91,253.445 c 5.7,21.242 -6.91,43.067 -28.14,48.762"
         style="fill:#ffffff;fill-opacity:1;fill-rule:evenodd;stroke:none"
         transform="matrix(0.13333333,0,0,-0.13333333,0,151.18667)" />
    </g>
  </g>
</svg>
