<?xml version="1.0" encoding="utf-8"?>
<!-- Generator: Adobe Illustrator 23.0.1, SVG Export Plug-In . SVG Version: 6.00 Build 0)  -->
<svg version="1.1" id="Ebene_1" xmlns="http://www.w3.org/2000/svg" xmlns:xlink="http://www.w3.org/1999/xlink" x="0px" y="0px"
	 viewBox="0 0 551.75 123.56" style="enable-background:new 0 0 551.75 123.56;" xml:space="preserve">
<style type="text/css">
	.st0{fill:#313F75;}
</style>
<g>
	<path class="st0" d="M222.54,94.92c0,2.86-0.75,5.02-2.26,6.48c-1.51,1.47-3.61,2.2-6.3,2.2c-2.69,0-4.8-0.73-6.33-2.2
		c-1.53-1.47-2.29-3.63-2.29-6.48V69.97h-10.83V94.8c0,5.67,1.63,10.23,4.89,13.67c3.26,3.45,8.11,5.17,14.56,5.17
		c6.44,0,11.29-1.71,14.53-5.14c3.24-3.42,4.86-7.99,4.86-13.7V69.97h-10.83V94.92z"/>
	<path class="st0" d="M182.51,73.88c-2.98-2.61-6.95-3.91-11.93-3.91h-18.84v42.75h10.82V99.94h8.01c5.02,0,9-1.32,11.96-3.95
		c2.95-2.63,4.43-6.35,4.43-11.16C186.98,80.14,185.49,76.49,182.51,73.88z M173.98,89.48c-1.24,0.9-2.95,1.35-5.11,1.35h-6.3V79.08
		h6.3c2.2,0,3.91,0.41,5.14,1.22c1.22,0.82,1.84,2.33,1.84,4.53C175.85,87.03,175.23,88.58,173.98,89.48z"/>
	<polygon class="st0" points="266.66,96.45 254.31,69.97 243.91,69.97 243.91,112.72 254.06,112.72 254.06,91.25 264.22,112.72 
		269.11,112.72 279.32,91.25 279.32,112.72 289.42,112.72 289.42,69.97 279.08,69.97 	"/>
	<path class="st0" d="M331.06,73.88c-2.98-2.61-6.95-3.91-11.93-3.91h-18.84v42.75h10.83V99.94h8.01c5.02,0,9-1.32,11.96-3.95
		c2.95-2.63,4.43-6.35,4.43-11.16C335.52,80.14,334.03,76.49,331.06,73.88z M322.52,89.48c-1.24,0.9-2.95,1.35-5.11,1.35h-6.3V79.08
		h6.3c2.2,0,3.91,0.41,5.14,1.22c1.22,0.82,1.84,2.33,1.84,4.53C324.39,87.03,323.77,88.58,322.52,89.48z"/>
	<polygon class="st0" points="409.77,95.41 394.05,69.97 383.35,69.97 383.35,112.72 394.18,112.72 394.18,87.21 409.95,112.72 
		420.6,112.72 420.6,69.97 409.77,69.97 	"/>
	<polygon class="st0" points="343.38,112.72 373.72,112.72 373.72,103.61 354.2,103.61 354.2,95.59 368.46,95.59 368.46,87.09 
		354.2,87.09 354.2,79.08 373.72,79.08 373.72,69.97 343.38,69.97 	"/>
	<polygon class="st0" points="231.37,44.48 211.86,44.48 211.86,36.47 226.11,36.47 226.11,27.97 211.86,27.97 211.86,19.95 
		231.37,19.95 231.37,10.84 201.04,10.84 201.04,53.59 231.37,53.59 	"/>
	<path class="st0" d="M315.07,52.06c2.06-1.02,3.7-2.5,4.92-4.43c1.22-1.94,1.83-4.21,1.83-6.82c0-2.45-0.49-4.44-1.47-5.97
		c-0.98-1.53-2.51-2.7-4.59-3.52c1.51-0.9,2.67-2.12,3.49-3.67c0.82-1.55,1.22-3.22,1.22-5.02c0-3.79-1.19-6.71-3.58-8.75
		c-2.39-2.04-5.64-3.06-9.75-3.06H285.5v42.75h22.69C310.71,53.59,313.01,53.08,315.07,52.06z M296.32,18.91h8.26
		c1.67,0,2.91,0.32,3.73,0.95c0.82,0.63,1.22,1.78,1.22,3.46c0,2.98-1.59,4.46-4.77,4.46h-8.44V18.91z M296.32,45.52v-9.73h8.87
		c1.92,0,3.34,0.4,4.28,1.19c0.94,0.79,1.41,2.07,1.41,3.82c0,1.75-0.45,2.98-1.35,3.67c-0.9,0.69-2.26,1.04-4.1,1.04H296.32z"/>
	<path class="st0" d="M394.76,40.2h6.12l6.79,13.4h11.13l-7.58-14.92c2.53-1.1,4.49-2.77,5.87-5.02c1.39-2.24,2.08-4.95,2.08-8.13
		c0-4.73-1.42-8.36-4.25-10.89c-2.83-2.53-6.76-3.79-11.77-3.79h-19.21v42.75h10.83V40.2z M394.76,19.95h6.48
		c2.2,0,3.88,0.4,5.05,1.19c1.16,0.79,1.74,2.25,1.74,4.37c0,2.04-0.59,3.48-1.77,4.31c-1.18,0.84-2.86,1.25-5.02,1.25h-6.48V19.95z
		"/>
	<path class="st0" d="M251.83,40.2h6.12l6.79,13.4h11.13l-7.59-14.92c2.53-1.1,4.49-2.77,5.87-5.02c1.39-2.24,2.08-4.95,2.08-8.13
		c0-4.73-1.42-8.36-4.25-10.89c-2.84-2.53-6.76-3.79-11.77-3.79H241v42.75h10.83V40.2z M251.83,19.95h6.48c2.2,0,3.88,0.4,5.05,1.19
		c1.16,0.79,1.74,2.25,1.74,4.37c0,2.04-0.59,3.48-1.77,4.31c-1.18,0.84-2.86,1.25-5.02,1.25h-6.48V19.95z"/>
	<polygon class="st0" points="476.55,53.59 506.89,53.59 506.89,44.48 487.37,44.48 487.37,36.47 501.63,36.47 501.63,27.97 
		487.37,27.97 487.37,19.95 506.89,19.95 506.89,10.84 476.55,10.84 	"/>
	<polygon class="st0" points="454.85,36.28 439.13,10.84 428.43,10.84 428.43,53.59 439.25,53.59 439.25,28.09 455.03,53.59 
		465.67,53.59 465.67,10.84 454.85,10.84 	"/>
	<path class="st0" d="M549.67,33.65c1.39-2.24,2.08-4.95,2.08-8.13c0-4.73-1.42-8.36-4.25-10.89c-2.84-2.53-6.76-3.79-11.77-3.79
		h-19.21v42.75h10.83V40.2h6.12l6.79,13.4h11.13l-7.58-14.92C546.33,37.57,548.28,35.9,549.67,33.65z M538.84,29.83
		c-1.18,0.84-2.86,1.25-5.02,1.25h-6.48V19.95h6.48c2.2,0,3.88,0.4,5.05,1.19c1.16,0.79,1.74,2.25,1.74,4.37
		C540.62,27.56,540.02,29,538.84,29.83z"/>
	<path class="st0" d="M363.69,12.74c-3.49-1.88-7.37-2.81-11.65-2.81c-4.32,0-8.23,0.94-11.71,2.81c-3.49,1.88-6.24,4.51-8.26,7.89
		c-2.02,3.38-3.03,7.26-3.03,11.62c0,4.36,1.01,8.23,3.03,11.59c2.02,3.36,4.77,5.98,8.26,7.86c3.49,1.88,7.39,2.81,11.71,2.81
		c4.28,0,8.17-0.94,11.65-2.81c3.49-1.88,6.23-4.5,8.23-7.86c2-3.36,3-7.23,3-11.59c0-4.36-1-8.24-3-11.62
		C369.92,17.24,367.18,14.61,363.69,12.74z M362.25,38.67c-1.06,1.84-2.49,3.24-4.28,4.22c-1.8,0.98-3.77,1.47-5.93,1.47
		c-2.2,0-4.21-0.49-6.02-1.47c-1.82-0.98-3.24-2.39-4.28-4.22c-1.04-1.83-1.56-3.97-1.56-6.42s0.52-4.58,1.56-6.39
		c1.04-1.81,2.46-3.22,4.25-4.22c1.79-1,3.81-1.5,6.06-1.5c2.2,0,4.2,0.5,5.99,1.5c1.79,1,3.21,2.41,4.25,4.22
		c1.04,1.82,1.56,3.95,1.56,6.39S363.31,36.84,362.25,38.67z"/>
	<polygon class="st0" points="179.34,27.35 162.58,27.35 162.58,10.84 151.75,10.84 151.75,53.59 162.58,53.59 162.58,36.35 
		179.34,36.35 179.34,53.59 190.16,53.59 190.16,10.84 179.34,10.84 	"/>
	<path class="st0" d="M61.78,0C27.71,0,0,27.72,0,61.78c0,34.06,27.71,61.78,61.78,61.78s61.78-27.71,61.78-61.78
		C123.56,27.72,95.84,0,61.78,0z M61.78,112.86c-12.54,0-24.03-4.55-32.93-12.08l67.55-39l-67.55-39
		c8.9-7.52,20.39-12.07,32.93-12.07c28.16,0,51.08,22.91,51.08,51.08C112.85,89.94,89.94,112.86,61.78,112.86z"/>
</g>
</svg>
