<?xml version="1.0" encoding="utf-8"?>
<!-- Generator: Adobe Illustrator 26.0.1, SVG Export Plug-In . SVG Version: 6.00 Build 0)  -->
<svg version="1.1" id="Ebene_1"
	xmlns="http://www.w3.org/2000/svg"
	xmlns:xlink="http://www.w3.org/1999/xlink" x="0px" y="0px" viewBox="0 0 500 500" style="enable-background:new 0 0 500 500;" xml:space="preserve">
	<style type="text/css">
	.st0{fill:#000000;}
	</style>
	<g>
		<path class="st0" d="M279.79,127.03c-16.43-16.43-43.16-16.43-59.59,0l-93.18,93.18c-7.95,7.96-12.34,18.53-12.34,29.79
		c0,11.25,4.38,21.83,12.34,29.79l93.18,93.18c8.22,8.22,19,12.32,29.8,12.32c10.8,0,21.58-4.1,29.8-12.32l93.17-93.18
		c7.95-7.96,12.34-18.53,12.34-29.79c0-11.25-4.38-21.83-12.34-29.79L279.79,127.03z M358.92,265.73l-93.18,93.18
		c-8.68,8.67-22.8,8.67-31.47,0l-93.18-93.18c-4.2-4.2-6.51-9.79-6.51-15.73s2.31-11.53,6.51-15.73l93.18-93.18
		c8.68-8.67,22.8-8.67,31.47,0l93.18,93.18c4.2,4.2,6.51,9.79,6.51,15.73S363.12,261.53,358.92,265.73z"/>
		<path class="st0" d="M105.34,207.84l-1.57-1.57c-3.47-3.49-9.12-3.49-12.6,0l-41.8,41.81c-1.22,1.22-1.22,3.19,0,4.41l41.8,41.81
		c3.49,3.49,9.13,3.49,12.6,0.01l1.57-1.57c3.49-3.47,3.49-9.12,0-12.6L75.5,250.29l29.84-29.85
		C108.83,216.98,108.83,211.33,105.34,207.84z"/>
		<path class="st0" d="M27.04,250.29l29.84-29.85c3.49-3.47,3.49-9.12,0-12.6l-1.57-1.57c-3.47-3.49-9.12-3.49-12.6,0l-41.8,41.81
		c-1.22,1.22-1.22,3.19,0,4.41l41.8,41.81c3.49,3.49,9.13,3.49,12.6,0.01l1.57-1.57c3.49-3.47,3.49-9.12,0-12.6L27.04,250.29z"/>
		<path class="st0" d="M450.63,248.08l-41.8-41.81c-3.47-3.47-9.12-3.47-12.6-0.01l-1.57,1.57c-3.49,3.47-3.49,9.12,0,12.6
		l29.84,29.85l-29.84,29.85c-3.49,3.47-3.49,9.12,0,12.6l1.57,1.57c3.47,3.49,9.12,3.49,12.6,0l41.8-41.81
		C451.85,251.27,451.85,249.3,450.63,248.08z"/>
		<path class="st0" d="M499.09,248.08l-41.8-41.81c-3.47-3.47-9.12-3.47-12.6-0.01l-1.57,1.57c-3.49,3.47-3.49,9.12,0,12.6
		l29.84,29.85l-29.84,29.85c-3.49,3.47-3.49,9.12,0,12.6l1.57,1.57c3.47,3.49,9.12,3.49,12.6,0l41.8-41.81
		C500.3,251.27,500.3,249.3,499.09,248.08z"/>
		<path class="st0" d="M207.57,105.32c3.47,3.49,9.12,3.49,12.6,0l29.84-29.83l29.84,29.85c3.47,3.49,9.12,3.49,12.6,0l1.57-1.57
		c3.49-3.47,3.49-9.12,0-12.6l-41.8-41.81c-1.23-1.22-3.21-1.22-4.43,0L206,91.16c-3.49,3.49-3.49,9.13,0,12.59L207.57,105.32z"/>
		<path class="st0" d="M207.57,56.88c3.47,3.49,9.12,3.49,12.6,0l29.84-29.83l29.84,29.85c3.47,3.49,9.12,3.49,12.6,0l1.57-1.57
		c3.49-3.47,3.49-9.12,0-12.6l-41.8-41.81c-1.23-1.22-3.21-1.22-4.43,0L206,42.72c-3.49,3.47-3.49,9.12,0,12.59L207.57,56.88z"/>
		<path class="st0" d="M247.79,450.64c1.23,1.22,3.21,1.22,4.43,0l41.8-41.81c3.49-3.49,3.49-9.13,0-12.59l-1.57-1.57
		c-3.47-3.49-9.12-3.49-12.6,0L250,424.51l-29.84-29.85c-3.47-3.49-9.12-3.49-12.6,0l-1.57,1.57c-3.49,3.47-3.49,9.12,0,12.6
		L247.79,450.64z"/>
		<path class="st0" d="M292.46,443.12c-3.47-3.49-9.12-3.49-12.6,0l-29.84,29.83l-29.84-29.85c-3.47-3.49-9.12-3.49-12.6,0
		l-1.57,1.57c-3.49,3.47-3.49,9.12,0,12.6l41.79,41.81c1.23,1.22,3.21,1.22,4.43,0l41.8-41.81c3.49-3.47,3.49-9.12,0.01-12.59
		L292.46,443.12z"/>
	</g>
</svg>
