<svg version="1.2" baseProfile="tiny-ps" xmlns="http://www.w3.org/2000/svg" viewBox="0 0 1131 1133" width="1131" height="1133">
	<title>Shape 3 copy 3</title>
	<style>
		tspan { white-space:pre }
		.shp0 { fill: #000000 } 
	</style>
	<path id="Shape 1" class="shp0" d="M831.67 564C831.66 579.74 826.14 593.13 815.09 604.18L606.18 813.09C595.13 824.14 581.73 829.67 566 829.67C550.26 829.67 536.87 824.14 525.82 813.09L316.91 604.18C305.86 593.13 300.33 579.74 300.33 564C300.33 548.26 305.86 534.87 316.91 523.82L525.82 314.91C536.87 303.86 550.26 298.33 566 298.33C581.73 298.33 595.13 303.86 606.18 314.91L815.09 523.82C826.14 534.87 831.66 548.26 831.67 564ZM877.12 564C877.11 535.71 867.16 511.6 847.24 491.68L638.32 282.76C618.39 262.84 594.29 252.88 566 252.88C537.7 252.88 513.6 262.84 493.68 282.76L284.76 491.68C264.84 511.61 254.88 535.71 254.88 564C254.88 592.29 264.84 616.39 284.76 636.32L493.68 845.24C513.6 865.16 537.7 875.12 566 875.12C594.29 875.12 618.39 865.16 638.32 845.24L847.24 636.32C867.16 616.4 877.11 592.29 877.12 564Z" />
	<path id="Shape 2" class="shp0" d="M571.6 108.46L663.64 204.44C664.61 205.46 665.29 206.58 665.66 207.83C669.58 211.88 672 217.4 672 223.5C672 235.94 661.94 246 649.5 246C642.47 246 636.21 242.79 632.08 237.76C632.02 237.69 631.95 237.62 631.88 237.55L566.01 168.86L500.12 237.53C499.25 238.44 498.3 239.09 497.26 239.49C493.31 242.93 488.15 245 482.5 245C470.06 245 460 234.94 460 222.5C460 216.03 462.72 210.2 467.08 206.1C467.42 205.51 467.85 204.95 468.36 204.42L560.43 108.46C562 106.82 563.86 106 566.01 106C568.16 106 570.03 106.82 571.6 108.46ZM571.6 2.46L663.64 98.44C664.65 99.5 665.34 100.68 665.7 101.98C669.01 105.9 671 110.96 671 116.5C671 128.94 660.94 139 648.5 139C641.37 139 635.02 135.69 630.9 130.53L566.01 62.86L500.12 131.53C499.25 132.44 498.3 133.09 497.26 133.49C493.31 136.93 488.15 139 482.5 139C470.06 139 460 128.94 460 116.5C460 110.03 462.72 104.2 467.08 100.1C467.42 99.51 467.85 98.95 468.36 98.42L560.43 2.46C562 0.82 563.86 0 566.01 0C568.16 0 570.03 0.82 571.6 2.46Z" />
	<path id="Shape 3" class="shp0" d="M221.5 669C215.54 669 210.13 666.69 206.11 662.92C205.51 662.58 204.95 662.15 204.42 661.64L108.46 569.57C106.82 568 106 566.14 106 563.99C106 561.84 106.82 559.97 108.46 558.4L202.87 467.86C206.92 461.91 213.75 458 221.5 458C233.94 458 244 468.06 244 480.5C244 485.29 242.51 489.73 239.97 493.37C239.78 495.17 238.97 496.76 237.55 498.12L168.86 563.99L237.53 629.88C238.56 630.87 239.27 631.97 239.65 633.19C242.39 636.92 244 641.52 244 646.5C244 658.94 233.94 669 221.5 669ZM114.5 670C105.83 670 98.31 665.11 94.55 657.93L2.46 569.57C0.82 568 0 566.14 0 563.99C0 561.84 0.82 559.97 2.46 558.4L96.87 467.86C100.92 461.91 107.75 458 115.5 458C127.94 458 138 468.06 138 480.5C138 485.29 136.51 489.73 133.97 493.37C133.78 495.17 132.97 496.76 131.55 498.12L62.86 563.99L131.53 629.88C133.17 631.45 133.99 633.32 133.99 635.47C133.99 635.71 133.98 635.95 133.96 636.18C135.89 639.51 137 643.37 137 647.5C137 659.94 126.94 670 114.5 670Z" />
	<path id="Shape 3 copy 2" class="shp0" d="M461 1016.5C461 1004.06 471.06 994 483.5 994C490.63 994 496.98 997.31 501.1 1002.47L565.99 1070.14L631.88 1001.47C632.75 1000.56 633.7 999.91 634.74 999.51C638.69 996.07 643.85 994 649.5 994C661.94 994 672 1004.06 672 1016.5C672 1022.97 669.28 1028.8 664.92 1032.9C664.58 1033.49 664.15 1034.05 663.64 1034.58L571.57 1130.54C570 1132.18 568.14 1133 565.99 1133C563.84 1133 561.97 1132.18 560.4 1130.54L468.36 1034.56C467.35 1033.5 466.66 1032.32 466.3 1031.02C462.99 1027.1 461 1022.04 461 1016.5ZM460 909.5C460 897.06 470.06 887 482.5 887C489.53 887 495.79 890.21 499.92 895.24C499.98 895.31 500.05 895.38 500.12 895.45L565.99 964.14L631.88 895.47C632.75 894.56 633.7 893.91 634.74 893.51C638.69 890.07 643.85 888 649.5 888C661.94 888 672 898.06 672 910.5C672 916.97 669.28 922.8 664.92 926.9C664.58 927.49 664.15 928.05 663.64 928.58L571.57 1024.54C570 1026.18 568.14 1027 565.99 1027C563.84 1027 561.97 1026.18 560.4 1024.54L468.36 928.56C467.39 927.54 466.71 926.42 466.34 925.17C462.42 921.12 460 915.6 460 909.5Z" />
	<path id="Shape 3 copy 3" class="shp0" d="M886 481.5C886 469.06 896.06 459 908.5 459C914.03 459 919.09 460.99 923 464.29C924.33 464.64 925.52 465.33 926.59 466.36L1022.55 558.43C1024.19 560 1025.01 561.86 1025.01 564.01C1025.01 566.16 1024.19 568.03 1022.55 569.6L926.57 661.64C926.05 662.14 925.5 662.56 924.91 662.9C920.81 667.27 914.98 670 908.5 670C896.06 670 886 659.94 886 647.5C886 641.86 888.07 636.71 891.49 632.76C891.89 631.71 892.55 630.75 893.46 629.88L962.15 564.01L894.65 499.24C889.38 495.13 886 488.72 886 481.5ZM993 480.5C993 468.06 1003.06 458 1015.5 458C1023.22 458 1030.02 461.87 1034.07 467.78L1128.55 558.43C1130.19 560 1131.01 561.86 1131.01 564.01C1131.01 566.16 1130.19 568.03 1128.55 569.6L1032.57 661.64C1032.05 662.14 1031.5 662.56 1030.91 662.9C1026.81 667.27 1020.98 670 1014.5 670C1002.06 670 992 659.94 992 647.5C992 641.86 994.07 636.71 997.49 632.76C997.89 631.71 998.55 630.75 999.46 629.88L1068.15 564.01L999.47 498.12C998.06 496.76 997.26 495.2 997.07 493.42C994.5 489.76 993 485.31 993 480.5Z" />
</svg>