<?xml version="1.0" encoding="utf-8"?>
<!-- Generator: Adobe Illustrator 25.3.1, SVG Export Plug-In . SVG Version: 6.00 Build 0)  -->
<svg version="1.1" id="Ebene_1" xmlns="http://www.w3.org/2000/svg" xmlns:xlink="http://www.w3.org/1999/xlink" x="0px" y="0px"
	 viewBox="0 0 86.6 36.3" style="enable-background:new 0 0 86.6 36.3;" xml:space="preserve">
<style type="text/css">
	.st0{fill:#FFFFFF;}
</style>
<g>
	<g>
		<path class="st0" d="M84.8,36.3v-7.2h-1.2v5.2l-4.1-5.2h-1v7.2h1.2v-5.2l4.1,5.2H84.8z M69.4,32.7c0-1.4,1.1-2.6,2.6-2.6
			c1.4,0,2.5,1.2,2.5,2.6c0,1.4-1.1,2.6-2.5,2.6C70.5,35.3,69.4,34.1,69.4,32.7 M75.8,32.7c0-2.1-1.7-3.7-3.8-3.7
			c-2.1,0-3.8,1.6-3.8,3.7s1.7,3.7,3.8,3.7C74.1,36.4,75.8,34.8,75.8,32.7 M63.9,36.3h1.2v-7.2h-1.2V36.3z M57.6,36.3h1.2v-6.1h2.1
			v-1.1h-5.4v1.1h2.1V36.3z M49.2,33.4l1.2-2.7l1.2,2.7H49.2z M46.7,36.3h1.2l0.8-1.9H52l0.8,1.9h1.2l-3.2-7.2h-1L46.7,36.3z
			 M36.8,36.3H38v-4.9l2,3.2h0.8l2-3.2v4.9h1.2v-7.2H43l-2.5,4l-2.5-4h-1.1L36.8,36.3L36.8,36.3z M27.9,32.7c0-1.4,1.1-2.6,2.5-2.6
			c1.4,0,2.5,1.2,2.5,2.6c0,1.4-1.1,2.6-2.5,2.6C29,35.3,27.9,34.1,27.9,32.7 M34.2,32.7c0-2.1-1.7-3.7-3.8-3.7
			c-2.1,0-3.8,1.6-3.8,3.7s1.7,3.7,3.8,3.7C32.6,36.4,34.2,34.8,34.2,32.7 M21.3,36.3h1.2v-6.1h2.1v-1.1h-5.4v1.1h2.1V36.3z
			 M16.3,33.5v-4.4h-1.2v4.4c0,1.1-0.7,1.8-1.7,1.8c-1,0-1.7-0.7-1.7-1.8v-4.4h-1.2v4.4c0,1.8,1.2,2.9,2.9,2.9
			C15.1,36.4,16.3,35.3,16.3,33.5 M3.3,33.4l1.2-2.7l1.2,2.7H3.3z M0.8,36.3H2l0.8-1.9h3.3l0.8,1.9h1.2L5,29.1h-1L0.8,36.3z"/>
	</g>
	<polygon class="st0" points="46,1.1 46,24.8 62.8,24.8 62.8,20.3 50.8,20.3 50.8,1.1 	"/>
	<polygon class="st0" points="66.9,1 66.9,5.6 78.7,5.6 66.9,20.5 66.9,24.8 85.1,24.8 85.1,20.3 73.2,20.3 85.1,5.5 85.1,1 	"/>
	<polygon class="st0" points="30.2,0 22.3,16.8 27.9,16.8 28.3,16 30.2,11.9 30.9,13.3 32.5,16.8 38.1,16.8 	"/>
	<polygon class="st0" points="33.7,19.4 35.9,24.1 36.3,24.8 41.9,24.8 39.3,19.4 	"/>
	<polygon class="st0" points="21.1,19.4 18.6,24.8 24.1,24.8 26,21 26.7,19.4 	"/>
	<path class="st0" d="M11.4,7.6c0-1.7-1.1-2.5-3.3-2.4C6.4,5.3,5.4,6,5.4,7.3c0,1.1,0.2,1.8,1.3,2.5c1.5,1,3.8,1.8,5.8,3
		c2,1.2,3.6,2.7,3.7,5.5c0.1,4.5-3,7.1-7.4,7.3c-5.1,0.2-8.7-2-8.7-7h4.9c0.1,2.5,2,2.7,3.2,2.7c1.6,0,2.7-0.8,2.7-2.2
		c0-1-0.3-1.7-0.8-2.1c-1.5-1.3-4.7-2.3-6.7-3.8c-1.7-1.3-3.1-3-3.1-5.9c0-4.1,3.5-6.5,7.6-6.6c4.1-0.1,8.1,2.2,8.2,7L11.4,7.6z"/>
</g>
</svg>
