<svg version="1.1" xmlns="http://www.w3.org/2000/svg" xmlns:xlink="http://www.w3.org/1999/xlink" x="0px" y="0px" xml:space="preserve" viewBox="181.41 206.48 147.9 147.9">
<style type="text/css">
	.st0{opacity:0.8;fill:#FF0052;}
	.st1{fill:#FFFFFF;}
	.st2{fill:#FF4E77;}
	.st3{fill:#FF0A59;}
	.st4{fill:#FF3375;}
</style>
<g id="Ebene_2">
	<polygon class="st2" points="182.84,250.82 255.44,206.49 255.44,226.24 185.7,268.8  "/>
	<polyline class="st2" points="327.87,250.94 255.44,206.49 255.44,226.24 324.71,269.4 327.87,250.94  "/>
	<polygon class="st1" points="322.52,285.41 320.13,300.43 255.44,354.38 255.44,338.85  "/>
	<polygon class="st1" points="188.35,285.41 255.44,338.85 255.44,354.38 190.8,300.8  "/>
	<polygon class="st1" points="322.52,285.41 255.44,245.07 255.44,260.07 320.13,300.43  "/>
	<polygon class="st2" points="255.44,303.27 327.87,250.94 324.71,269.4 255.44,321.88  "/>
	<polygon class="st2" points="182.84,250.82 255.44,303.27 255.44,321.88 185.7,268.8  "/>
	<polygon class="st1" points="188.35,285.41 255.44,245.07 255.44,260.07 190.8,300.8  "/>
	<polygon points="255.69,226.4 255.44,226.24 255.19,226.4 255.19,206.64 255.44,206.49 255.69,206.64  "/>
	<polygon points="255.19,303.09 255.44,303.27 255.69,303.09 255.69,321.68 255.44,321.88 255.19,321.7  "/>
	<polygon points="255.19,338.65 255.44,338.85 255.69,338.65 255.69,354.16 255.44,354.38 255.19,354.19  "/>
	<polygon points="255.69,260.22 255.44,260.07 255.19,260.22 255.19,245.21 255.44,245.06 255.69,245.21  "/>
</g>
</svg>