<?xml version="1.0" encoding="UTF-8"?>
<!DOCTYPE svg  PUBLIC '-//W3C//DTD SVG 1.0//EN'  'http://www.w3.org/TR/2001/REC-SVG-20010904/DTD/svg10.dtd'>
<svg version="1.0" viewBox="0 0 1000 480" xmlns="http://www.w3.org/2000/svg">
<g transform="matrix(1.0174 0 0 1.0174 -11.654 -8.46)" fill="#e30018">
<path d="m39.532 349.15h74.743v31.302h-34.059v10.937h31.116v29.783h-31.116v11.244h35.243v31.302h-75.926v-114.57z"/>
<path d="m229.23 349.15v67.765c0 33.435-20.346 48.63-51.452 48.63-31.106 0-51.443-15.194-51.443-48.63v-67.765h40.394v63.815c0 8.9714 0.28879 16.871 11.049 16.871 10.76 0 11.058-7.9 11.058-16.871v-63.815h40.394z"/>
<path d="m241.9 349.15h48.797c25.06 0 46.291 10.937 46.291 39.807 0 17.328-6.4933 24.613-21.529 29.783v0.91298c2.0682 1.6676 30.967 44.065 30.967 44.065h-46.59l-17.691-36.77h-0.73598v36.77h-39.509v-114.57zm39.509 50.744h2.8041c6.633 0 13.266-1.062 13.266-9.5676 0-8.813-6.0461-9.875-12.977-9.875h-3.0929v19.443z"/>
<path d="m467.29 406.74c0 36.77-27.566 58.812-61.477 58.812-33.91 0-61.477-22.042-61.477-58.812 0-36.016 27.715-59.418 61.477-59.418 33.761 0 61.477 23.402 61.477 59.418m-82.261 0.61486c0 13.061 8.5521 22.023 20.784 22.023s20.784-8.962 20.784-22.023c0-12.167-7.9559-22.349-20.784-22.349s-20.784 10.182-20.784 22.349"/>
<path d="m476.69 349.15h41.13c37.301 0 65.902 16.862 65.902 58.952 0 34.041-23.299 55.617-55.878 55.617h-51.154v-114.57zm40.395 80.23h2.5056c13.415 0 23.737-6.3815 23.737-21.427 0-16.107-8.9896-22.945-23.737-22.945h-2.5056v44.372z"/>
<path d="m593.14 349.15h48.797c25.06 0 46.291 10.937 46.291 39.807 0 17.328-6.4832 24.613-21.529 29.783v0.91298c2.0682 1.6676 30.958 44.065 30.958 44.065h-46.581l-17.691-36.77h-0.73635v36.77h-39.509v-114.57zm39.509 50.744h2.8045c6.633 0 13.266-1.062 13.266-9.5676 0-8.813-6.0465-9.875-12.978-9.875h-3.0929v19.443z"/>
<path d="m702.53 349.15h40.394v114.57h-40.394v-114.57z"/>
<path d="m868.38 349.15-43.049 114.57h-34.2l-43.049-114.57h42.164l14.739 52.114c1.6299 5.6269 2.8038 11.244 2.8038 17.02h0.88541c0-5.776 1.1738-11.394 2.7948-17.02l14.747-52.114h42.164z"/>
<path d="m871.62 349.15h74.742v31.302h-34.059v10.937h31.116v29.783h-31.116v11.244h35.243v31.302h-75.926v-114.57z"/>
<path d="m58.855 224.75 5.6921 4.481c19.955 15.465 43.972 28.079 69.609 28.079 10.993 0 28.488-4.4717 28.488-18.315 0-13.834-14.645-15.055-24.827-17.095l-22.386-4.0711c-43.553-7.7323-80.183-33.37-80.183-81.404 0-72.861 66.349-113.57 133.1-113.57 35.01 0 67.169 8.5521 97.287 26.867l-30.119 78.562c-19.135-13.024-40.711-23.206-64.728-23.206-9.7632 0-24.007 3.6705-24.007 16.284 0 11.403 13.834 13.024 22.377 15.064l25.246 5.6921c47.214 10.583 81.404 35.829 81.404 87.925 0 73.271-66.749 109.49-133.11 109.49-38.662 0-83.434-10.583-118.03-28.079l34.19-86.704z"/>
<path d="m294.5 27.744h206.37v83.854h-94.027v29.308h85.894v79.783h-85.894v30.119h97.288v83.854h-209.63v-306.92z"/>
<path d="m613.55 27.744 38.466 177.25 44.568-177.25h85.485l41.828 177.25 41.205-177.25h116.01l-108.27 306.92h-97.288l-35.01-166.89-40.292 166.89h-94.847l-107.46-306.92h115.6z"/>
</g>
</svg>
