<?xml version="1.0" encoding="utf-8"?>
<!-- Generator: Adobe Illustrator 16.0.0, SVG Export Plug-In . SVG Version: 6.00 Build 0)  -->
<!DOCTYPE svg PUBLIC "-//W3C//DTD SVG 1.1//EN" "http://www.w3.org/Graphics/SVG/1.1/DTD/svg11.dtd">
<svg version="1.1" id="Ebene_1" xmlns="http://www.w3.org/2000/svg" xmlns:xlink="http://www.w3.org/1999/xlink" x="0px" y="0px"
     width="180px" height="80px" viewBox="32.598 53.857 76.535 34.016" enable-background="new 32.598 53.857 76.535 34.016"
     xml:space="preserve">
<g>
	<polygon fill="#FFFFFF" points="33.074,85.826 33.074,80.877 36.542,80.877 36.542,81.416 33.612,81.416 33.612,83.015
		36.457,83.015 36.457,83.52 33.612,83.52 33.612,85.304 36.542,85.304 36.542,85.826 	"/>
    <g>
		<path fill="#FFFFFF" d="M37.35,85.826v-3.484h0.488v0.472c0.084-0.186,0.219-0.304,0.404-0.404
			c0.185-0.084,0.438-0.135,0.741-0.135c0.455,0,0.774,0.084,0.959,0.27c0.185,0.185,0.27,0.505,0.27,0.977v2.289h-0.522v-2.172
			c0-0.37-0.05-0.605-0.168-0.724c-0.101-0.118-0.32-0.168-0.623-0.168c-0.371,0-0.64,0.084-0.808,0.252
			c-0.168,0.169-0.252,0.438-0.252,0.791v2.021H37.35V85.826z"/>
        <path fill="#FFFFFF" d="M43.679,84.362v-0.573c0-0.37-0.084-0.622-0.252-0.791c-0.168-0.168-0.438-0.252-0.808-0.252
			c-0.336,0-0.556,0.067-0.673,0.185c-0.118,0.118-0.168,0.404-0.168,0.842v0.59c0,0.438,0.051,0.724,0.168,0.842
			c0.118,0.117,0.337,0.185,0.673,0.185c0.371,0,0.64-0.084,0.808-0.252C43.595,84.984,43.679,84.732,43.679,84.362 M44.201,82.325
			v3.451c0,0.505-0.101,0.875-0.303,1.077c-0.202,0.202-0.555,0.303-1.061,0.303h-0.235c-0.455,0-0.792-0.084-0.994-0.252
			c-0.202-0.169-0.336-0.438-0.354-0.825h0.522c0.017,0.219,0.084,0.37,0.202,0.472c0.118,0.084,0.32,0.135,0.623,0.135h0.235
			c0.303,0,0.522-0.051,0.657-0.152c0.135-0.101,0.202-0.269,0.202-0.488v-0.724c-0.101,0.186-0.236,0.337-0.404,0.421
			c-0.168,0.084-0.404,0.135-0.69,0.135c-0.505,0-0.842-0.101-1.044-0.303s-0.303-0.556-0.303-1.061v-0.825
			c0-0.505,0.101-0.858,0.303-1.077c0.202-0.202,0.556-0.304,1.044-0.304c0.303,0,0.539,0.051,0.707,0.135
			c0.185,0.102,0.303,0.253,0.387,0.455v-0.539h0.505V82.325z"/>
	</g>
    <path fill="#FFFFFF" d="M45.295,82.325h0.522v3.484h-0.522V82.325z M45.295,80.877h0.522v0.59h-0.522V80.877z"/>
    <path fill="#FFFFFF" d="M46.878,85.826v-3.484h0.488v0.472c0.084-0.186,0.219-0.304,0.404-0.404
		c0.185-0.084,0.438-0.135,0.741-0.135c0.455,0,0.774,0.084,0.959,0.27c0.186,0.185,0.27,0.505,0.27,0.977v2.289h-0.522v-2.172
		c0-0.37-0.05-0.605-0.168-0.724c-0.101-0.118-0.32-0.168-0.623-0.168c-0.371,0-0.64,0.084-0.808,0.252
		c-0.168,0.169-0.252,0.438-0.252,0.791v2.021h-0.488V85.826z"/>
    <path fill="#FFFFFF" d="M51.204,83.739h1.97v-0.135c0-0.32-0.05-0.556-0.168-0.674c-0.118-0.117-0.354-0.168-0.69-0.168H52.08
		c-0.336,0-0.572,0.051-0.69,0.168c-0.118,0.118-0.168,0.337-0.168,0.674v0.135H51.204z M52.08,85.86
		c-0.522,0-0.892-0.102-1.094-0.303c-0.202-0.202-0.32-0.556-0.32-1.078v-0.824c0-0.506,0.101-0.876,0.303-1.078
		s0.572-0.303,1.094-0.303h0.236c0.521,0,0.892,0.101,1.094,0.303c0.202,0.202,0.32,0.556,0.32,1.078v0.521h-2.509
		c0,0.033,0,0.067,0,0.118c0,0.05,0,0.101,0,0.185c0,0.354,0.051,0.606,0.168,0.725c0.118,0.117,0.354,0.185,0.69,0.185h0.236
		c0.32,0,0.521-0.051,0.656-0.135c0.118-0.084,0.185-0.252,0.219-0.471h0.539c-0.034,0.37-0.152,0.656-0.371,0.824
		c-0.219,0.169-0.556,0.253-1.027,0.253H52.08L52.08,85.86z"/>
    <path fill="#FFFFFF" d="M55.042,83.739h1.97v-0.135c0-0.32-0.05-0.556-0.168-0.674c-0.118-0.117-0.354-0.168-0.69-0.168h-0.236
		c-0.337,0-0.572,0.051-0.69,0.168c-0.118,0.118-0.168,0.337-0.168,0.674v0.135H55.042z M55.918,85.86
		c-0.522,0-0.892-0.102-1.094-0.303c-0.202-0.202-0.32-0.556-0.32-1.078v-0.824c0-0.506,0.101-0.876,0.303-1.078
		c0.202-0.202,0.572-0.303,1.094-0.303h0.235c0.522,0,0.893,0.101,1.094,0.303c0.202,0.202,0.32,0.556,0.32,1.078v0.521h-2.508
		c0,0.033,0,0.067,0,0.118c0,0.05,0,0.101,0,0.185c0,0.354,0.051,0.606,0.168,0.725c0.118,0.117,0.354,0.185,0.69,0.185h0.235
		c0.32,0,0.522-0.051,0.657-0.135c0.118-0.084,0.185-0.252,0.219-0.471h0.539c-0.034,0.37-0.151,0.656-0.37,0.824
		c-0.219,0.169-0.556,0.253-1.027,0.253H55.918L55.918,85.86z"/>
    <path fill="#FFFFFF" d="M58.511,85.826v-3.484h0.505v0.472c0.067-0.186,0.185-0.32,0.336-0.404
		c0.152-0.084,0.354-0.118,0.623-0.118c0.387,0,0.64,0.084,0.808,0.27c0.151,0.186,0.236,0.505,0.236,0.977v0.033h-0.522v-0.101
		c0-0.286-0.051-0.472-0.135-0.556c-0.084-0.101-0.252-0.151-0.505-0.151c-0.286,0-0.488,0.084-0.623,0.235
		c-0.135,0.169-0.185,0.421-0.185,0.791v2.021h-0.539V85.826z"/>
    <path fill="#FFFFFF" d="M62.096,83.739h1.97v-0.135c0-0.32-0.05-0.556-0.168-0.674c-0.118-0.117-0.354-0.168-0.69-0.168h-0.236
		c-0.337,0-0.572,0.051-0.69,0.168c-0.118,0.118-0.168,0.337-0.168,0.674v0.135H62.096z M62.955,85.86
		c-0.522,0-0.893-0.102-1.095-0.303c-0.202-0.202-0.319-0.556-0.319-1.078v-0.824c0-0.506,0.101-0.876,0.303-1.078
		s0.572-0.303,1.094-0.303h0.236c0.521,0,0.892,0.101,1.094,0.303c0.202,0.202,0.32,0.556,0.32,1.078v0.521H62.08
		c0,0.033,0,0.067,0,0.118c0,0.05,0,0.101,0,0.185c0,0.354,0.05,0.606,0.168,0.725c0.118,0.117,0.354,0.185,0.69,0.185h0.236
		c0.32,0,0.521-0.051,0.656-0.135c0.118-0.084,0.186-0.252,0.219-0.471h0.539c-0.034,0.37-0.151,0.656-0.371,0.824
		c-0.219,0.169-0.555,0.253-1.027,0.253H62.955L62.955,85.86z"/>
    <path fill="#FFFFFF" d="M67.854,84.362v-0.573c0-0.37-0.084-0.622-0.253-0.791c-0.168-0.168-0.438-0.252-0.808-0.252
		c-0.336,0-0.555,0.067-0.673,0.185c-0.118,0.118-0.168,0.404-0.168,0.842v0.59c0,0.438,0.051,0.724,0.168,0.842
		c0.118,0.117,0.337,0.185,0.673,0.185c0.371,0,0.64-0.084,0.808-0.252C67.77,84.984,67.854,84.716,67.854,84.362 M67.871,85.288
		c-0.085,0.202-0.202,0.354-0.387,0.438c-0.168,0.101-0.421,0.135-0.707,0.135c-0.505,0-0.842-0.102-1.061-0.303
		c-0.202-0.202-0.303-0.556-0.303-1.061v-0.825c0-0.505,0.101-0.858,0.303-1.061s0.556-0.304,1.061-0.304
		c0.286,0,0.522,0.051,0.69,0.135c0.168,0.085,0.304,0.22,0.404,0.421v-1.936h0.522v4.933h-0.506v-0.572H67.871z"/>
    <path fill="#FFFFFF" d="M72.383,82.762v-0.438h0.42v-0.791h0.521v0.791h1.717v0.438h-1.717v1.919c0,0.27,0.051,0.455,0.135,0.556
		s0.252,0.151,0.506,0.151c0.252,0,0.42-0.051,0.504-0.135c0.084-0.101,0.135-0.286,0.135-0.556v-0.101h0.521v0.033
		c0,0.488-0.084,0.825-0.234,0.993c-0.168,0.169-0.506,0.253-1.01,0.253c-0.404,0-0.674-0.084-0.842-0.27
		c-0.152-0.185-0.236-0.505-0.236-0.977v-1.852h-0.42V82.762z"/>
    <path fill="#FFFFFF" d="M78.459,84.379v-0.59c0-0.438-0.051-0.724-0.168-0.841c-0.117-0.118-0.354-0.186-0.707-0.186h-0.236
		c-0.354,0-0.588,0.067-0.689,0.186c-0.117,0.117-0.168,0.403-0.168,0.841v0.59c0,0.438,0.051,0.724,0.168,0.842
		c0.117,0.117,0.336,0.185,0.689,0.185h0.236c0.354,0,0.59-0.067,0.707-0.185C78.393,85.102,78.459,84.816,78.459,84.379
		 M77.348,85.86c-0.521,0-0.893-0.102-1.094-0.303c-0.201-0.202-0.32-0.556-0.32-1.078v-0.824c0-0.506,0.102-0.876,0.303-1.078
		c0.203-0.202,0.572-0.303,1.096-0.303h0.234c0.521,0,0.893,0.101,1.096,0.303c0.201,0.202,0.318,0.556,0.318,1.078v0.824
		c0,0.505-0.1,0.876-0.303,1.078c-0.201,0.201-0.572,0.303-1.094,0.303H77.348z"/>
    <path fill="#FFFFFF" d="M83.695,84.362c0,0.37,0.084,0.622,0.252,0.791c0.168,0.168,0.438,0.252,0.809,0.252
		c0.336,0,0.555-0.067,0.672-0.185c0.119-0.118,0.17-0.404,0.17-0.842v-0.59c0-0.438-0.051-0.724-0.17-0.841
		c-0.117-0.118-0.336-0.186-0.672-0.186c-0.371,0-0.641,0.084-0.809,0.253c-0.168,0.168-0.252,0.42-0.252,0.791V84.362z
		 M83.189,82.325h0.488v0.538c0.084-0.202,0.219-0.354,0.387-0.454c0.186-0.102,0.422-0.135,0.707-0.135
		c0.506,0,0.842,0.101,1.061,0.303c0.203,0.202,0.303,0.556,0.303,1.078v0.824c0,0.505-0.1,0.858-0.303,1.061
		c-0.201,0.202-0.555,0.304-1.061,0.304c-0.285,0-0.521-0.051-0.689-0.135c-0.168-0.085-0.303-0.219-0.404-0.421v1.835h-0.521
		v-4.798H83.189z"/>
    <path fill="#FFFFFF" d="M87.482,83.739h1.969v-0.135c0-0.32-0.049-0.556-0.168-0.674c-0.117-0.117-0.354-0.168-0.689-0.168h-0.236
		c-0.336,0-0.572,0.051-0.689,0.168c-0.117,0.118-0.168,0.337-0.168,0.674v0.135H87.482z M88.342,85.86
		c-0.523,0-0.893-0.102-1.096-0.303c-0.201-0.202-0.318-0.556-0.318-1.078v-0.824c0-0.506,0.1-0.876,0.303-1.078
		c0.201-0.202,0.572-0.303,1.094-0.303h0.236c0.521,0,0.891,0.101,1.094,0.303c0.201,0.202,0.32,0.556,0.32,1.078v0.521h-2.51
		c0,0.033,0,0.067,0,0.118c0,0.05,0,0.101,0,0.185c0,0.354,0.051,0.606,0.17,0.725c0.117,0.117,0.354,0.185,0.689,0.185h0.236
		c0.318,0,0.521-0.051,0.656-0.135c0.117-0.084,0.186-0.252,0.219-0.471h0.539c-0.035,0.37-0.152,0.656-0.371,0.824
		c-0.219,0.169-0.555,0.253-1.027,0.253H88.342L88.342,85.86z"/>
    <path fill="#FFFFFF" d="M90.934,85.826v-3.484h0.506v0.472c0.066-0.186,0.184-0.32,0.336-0.404s0.354-0.118,0.623-0.118
		c0.387,0,0.639,0.084,0.809,0.27c0.15,0.186,0.234,0.505,0.234,0.977v0.033H92.92v-0.101c0-0.286-0.051-0.472-0.135-0.556
		c-0.084-0.101-0.252-0.151-0.504-0.151c-0.287,0-0.488,0.084-0.623,0.235c-0.135,0.169-0.186,0.421-0.186,0.791v2.021h-0.539
		V85.826z"/>
    <path fill="#FFFFFF" d="M93.762,82.762v-0.438h0.488c0-0.034,0-0.051,0-0.084c0-0.034,0-0.085,0-0.152
		c0-0.438,0.084-0.757,0.236-0.942c0.15-0.186,0.42-0.27,0.807-0.27c0.102,0,0.203,0,0.287,0c0.102,0,0.186,0.017,0.285,0.017v0.472
		c-0.033,0-0.066,0-0.117,0c-0.15,0-0.252,0-0.32,0c-0.27,0-0.438,0.034-0.537,0.118c-0.086,0.084-0.135,0.286-0.135,0.605v0.236
		h1.094v0.438h-1.094v3.047h-0.523v-3.047H93.762z"/>
    <path fill="#FFFFFF" d="M98.795,84.379v-0.59c0-0.438-0.051-0.724-0.168-0.841c-0.117-0.118-0.354-0.186-0.707-0.186h-0.236
		c-0.354,0-0.588,0.067-0.689,0.186c-0.102,0.117-0.168,0.403-0.168,0.841v0.59c0,0.438,0.051,0.724,0.168,0.842
		c0.117,0.117,0.336,0.185,0.689,0.185h0.236c0.354,0,0.59-0.067,0.707-0.185C98.744,85.102,98.795,84.816,98.795,84.379
		 M97.684,85.86c-0.521,0-0.891-0.102-1.094-0.303c-0.201-0.202-0.32-0.556-0.32-1.078v-0.824c0-0.506,0.102-0.876,0.303-1.078
		c0.203-0.202,0.574-0.303,1.096-0.303h0.234c0.523,0,0.893,0.101,1.096,0.303c0.201,0.202,0.318,0.556,0.318,1.078v0.824
		c0,0.505-0.1,0.876-0.303,1.078c-0.201,0.201-0.572,0.303-1.094,0.303H97.684z"/>
    <path fill="#FFFFFF" d="M100.277,85.826v-3.484h0.504v0.472c0.068-0.186,0.186-0.32,0.338-0.404
		c0.15-0.084,0.354-0.118,0.623-0.118c0.387,0,0.639,0.084,0.807,0.27c0.152,0.186,0.236,0.505,0.236,0.977v0.033h-0.521v-0.101
		c0-0.286-0.051-0.472-0.135-0.556c-0.084-0.101-0.252-0.151-0.506-0.151c-0.285,0-0.488,0.084-0.623,0.235
		c-0.135,0.169-0.184,0.421-0.184,0.791v2.021h-0.539V85.826z"/>
    <path fill="#FFFFFF" d="M103.543,85.826v-3.484h0.504v0.472c0.068-0.186,0.203-0.304,0.371-0.404
		c0.168-0.084,0.404-0.135,0.674-0.135c0.303,0,0.521,0.051,0.689,0.135s0.287,0.235,0.371,0.438
		c0.102-0.202,0.234-0.354,0.404-0.438c0.168-0.084,0.387-0.135,0.656-0.135c0.455,0,0.773,0.084,0.959,0.27
		c0.168,0.185,0.27,0.505,0.27,0.977v2.289h-0.521v-2.121c0-0.387-0.051-0.64-0.152-0.758c-0.1-0.117-0.303-0.185-0.588-0.185
		c-0.32,0-0.557,0.084-0.707,0.252c-0.152,0.169-0.219,0.421-0.219,0.791v2.021h-0.506v-2.356c0-0.27-0.051-0.455-0.152-0.556
		c-0.1-0.102-0.285-0.151-0.572-0.151c-0.336,0-0.572,0.084-0.723,0.252c-0.152,0.169-0.236,0.438-0.236,0.791v2.021h-0.521V85.826z
		"/>
    <path fill="#E2000F" d="M59.032,72.274c0,0.657-0.521,1.179-1.178,1.179h-0.606h-0.589h-0.606c-0.657,0-1.179-0.521-1.179-1.179
		v-7.643c0-0.656,0.522-1.179,1.179-1.179h0.606h0.606h0.606c0.657,0,1.179,0.522,1.179,1.179v7.643H59.032z M63.83,62.19
		c-0.084-0.64-0.707-1.245-1.347-1.329c-1.734-0.202-3.485-0.32-5.219-0.371h-0.606c-1.734,0.051-3.485,0.169-5.219,0.371
		c-0.64,0.084-1.263,0.673-1.347,1.329c-0.556,4.091-0.556,8.367,0,12.458c0.084,0.64,0.707,1.246,1.347,1.33
		c1.734,0.202,3.485,0.319,5.219,0.37h0.606c1.734-0.051,3.485-0.168,5.219-0.37c0.64-0.084,1.263-0.674,1.347-1.33
		C64.386,70.557,64.386,66.281,63.83,62.19"/>
    <path fill="#E2000F" d="M47.72,68.134c0-0.018,0-0.051-0.017-0.067c-0.017-0.304-0.084-0.606-0.219-0.876
		c-0.27-0.623-0.808-1.044-1.785-1.077l0,0h-0.033h-0.101c-0.168,0-0.472,0-0.875,0c-0.202,0-0.438,0-0.673,0
		c-0.236,0-0.505,0-0.774,0c-0.539,0-0.926,0-1.499,0c-0.185,0-0.37,0-0.555,0c-0.303,0-0.606,0-0.875,0c-0.455,0-1.229,0-1.515,0
		s-0.471,0-0.522-0.017c-0.27-0.017-0.539-0.304-0.572-0.59c-0.017-0.168-0.017-0.336-0.017-0.505c0-0.168,0-0.337,0.017-0.488
		c0.034-0.286,0.303-0.572,0.572-0.589c0.135-0.017,8.384-0.017,8.484-0.034c0.017,0,0.017,0,0.034,0
		c0.134-0.017,0.252-0.066,0.37-0.168c0.034-0.033,0.084-0.067,0.118-0.101c0.034-0.034,0.051-0.067,0.067-0.102
		c0.017-0.033,0.034-0.067,0.051-0.084c0-0.017,0-0.017,0.017-0.033c0.017-0.018,0.017-0.051,0.034-0.067
		c0-0.018,0-0.018,0.017-0.034c0.017-0.033,0.017-0.067,0.017-0.101l0,0c0-0.102,0.017-0.202,0.017-0.304c0,0,0,0,0-0.017
		s0-0.033,0-0.067c0-0.135,0-0.303,0-0.454c0-0.051,0-0.102,0-0.151c0-0.169-0.017-0.32-0.034-0.488c0-0.018,0-0.018,0-0.034
		c-0.051-0.37-0.404-0.64-0.724-0.74c-1.01-0.27-5.623-0.371-5.791-0.371l0,0l0,0c0,0-0.118,0-0.303,0
		c-1.01,0.018-4.444,0.067-6.262,0.371c-0.64,0.117-1.38,0.556-1.549,1.919c-0.37,2.912-0.202,5.74-0.202,5.842
		c0,0.017,0,0.05,0.017,0.067c0.017,0.303,0.084,0.605,0.219,0.875c0.269,0.623,0.808,1.044,1.785,1.077l0,0h0.033
		c0.017,0,0.051,0,0.101,0c0.168,0,0.472,0,0.875,0c0.202,0,0.438,0,0.673,0s0.505,0,0.774,0c0.539,0,0.926,0,1.499,0
		c0.185,0,0.37,0,0.555,0c0.303,0,0.977,0,1.246,0c0.455,0,0.858,0,1.145,0s0.471,0,0.522,0.018c0.27,0.017,0.539,0.303,0.572,0.589
		c0.017,0.168,0.017,0.337,0.017,0.505s0,0.337-0.017,0.488c-0.034,0.286-0.303,0.572-0.572,0.589
		c-0.135,0.018-8.384,0.018-8.485,0.034c-0.017,0-0.017,0-0.034,0c-0.134,0.017-0.252,0.067-0.37,0.168
		c-0.034,0.034-0.084,0.067-0.118,0.102c-0.034,0.033-0.051,0.067-0.067,0.101c-0.017,0.034-0.034,0.067-0.051,0.084
		c0,0.018,0,0.018-0.017,0.034c-0.017,0.017-0.017,0.05-0.034,0.067c0,0.017,0,0.017-0.017,0.033
		c-0.017,0.034-0.017,0.067-0.017,0.102l0,0c-0.017,0.101-0.017,0.201-0.017,0.303c0,0,0,0,0,0.017c0,0.102,0,0.32,0,0.522
		c0,0.05,0,0.117,0,0.151c0,0.168,0.017,0.319,0.017,0.488c0,0.017,0,0.017,0,0.033c0.05,0.37,0.404,0.64,0.724,0.741
		c1.01,0.269,5.623,0.37,5.792,0.37l0,0l0,0c0,0,0.488,0,0.673,0c1.01,0,4.074-0.067,5.892-0.37c0.64-0.118,1.38-0.556,1.549-1.92
		C47.905,71.062,47.736,68.234,47.72,68.134"/>
    <path fill="#E2000F" d="M92.162,62.073C92.162,62.073,92.162,62.055,92.162,62.073c-0.051-0.623-0.623-1.179-1.178-1.229
		c-0.506-0.033-0.91-0.05-1.312-0.05c-0.404,0-0.809,0.017-1.314,0.05c-0.555,0.051-1.111,0.606-1.178,1.213c0,0,0,0,0,0.017
		c-0.018,0.27-0.084,2.794-0.084,6.077c0,2.828,0.051,6.094,0.066,6.565c0,0.017,0,0.033,0,0.051
		c0.035,0.269,0.152,0.538,0.338,0.74c0.201,0.235,0.471,0.404,0.74,0.455l0,0c0.018,0,0.018,0,0.033,0
		c0.018,0,0.051,0.017,0.068,0.017c0.504,0.033,0.908,0.051,1.312,0.051s0.809-0.018,1.312-0.051c0.018,0,0.051,0,0.068-0.017
		c0.016,0,0.016,0,0.033,0l0,0c0.27-0.051,0.539-0.236,0.74-0.455c0.186-0.219,0.303-0.472,0.338-0.74c0-0.018,0-0.034,0-0.051
		c0.016-0.472,0.066-3.737,0.066-6.565C92.246,64.867,92.18,62.343,92.162,62.073"/>
    <path fill="#E2000F" d="M88.408,58.336c0.959,0.067,1.549,0.067,2.508,0c0.557-0.051,1.096-0.606,1.145-1.195
		c0.051-0.674,0.051-1.363,0-2.037c-0.049-0.589-0.605-1.145-1.145-1.195c-0.959-0.067-1.549-0.067-2.508,0
		c-0.555,0.051-1.094,0.606-1.145,1.195c-0.051,0.674-0.051,1.363,0,2.037C87.314,57.729,87.869,58.285,88.408,58.336"/>
    <path fill="#E2000F" d="M108.896,73.15c0-0.051-0.018-0.102-0.033-0.169c-0.035-0.101-0.068-0.185-0.119-0.269
		c0,0,0-0.018-0.016-0.018c-0.018-0.033-0.051-0.067-0.086-0.117l-0.016-0.018c-0.051-0.067-0.117-0.117-0.168-0.185
		c-0.018,0-0.018-0.018-0.035-0.018c-0.016-0.017-0.049-0.033-0.066-0.05c-0.033-0.017-0.051-0.034-0.084-0.051
		c-0.018-0.017-0.033-0.017-0.068-0.033c-0.033-0.018-0.066-0.034-0.1-0.034c-0.018,0-0.035-0.017-0.051-0.017
		c-0.051-0.017-0.102-0.034-0.152-0.034l0,0l0,0c-0.1,0-0.186-0.017-0.285-0.017c-0.068,0-0.135,0-0.186-0.017
		c-0.018,0-0.051,0-0.068,0c-0.572-0.017-1.076-0.017-1.699,0.033l0,0l0,0c-0.033,0-0.084,0.018-0.117,0.018
		c-0.035,0.017-0.068,0.017-0.102,0.033l0,0c-0.084,0.034-0.152,0.067-0.219,0.118l0,0c-0.203,0.135-0.371,0.337-0.506,0.572
		c-0.186,0.235-0.438,0.319-0.74,0.319h-3.367c-0.656,0-1.178-0.521-1.178-1.178V64.8c0-0.656,0.521-1.178,1.178-1.178h3.367
		c0.303,0,0.539,0.084,0.74,0.319c0.135,0.253,0.303,0.438,0.506,0.572l0,0c0.066,0.051,0.135,0.085,0.219,0.118l0,0
		c0.033,0.017,0.066,0.017,0.102,0.033c0.033,0.018,0.084,0.018,0.117,0.018l0,0l0,0c0.623,0.05,1.127,0.05,1.699,0.033
		c0.035,0,0.051,0,0.086,0c0.066,0,0.117,0,0.184-0.017c0.084,0,0.186-0.017,0.287-0.017l0,0l0,0c0.051,0,0.102-0.018,0.15-0.034
		c0.018,0,0.035-0.017,0.051-0.017c0.035-0.017,0.068-0.033,0.102-0.033c0.018-0.018,0.033-0.018,0.066-0.034
		c0.035-0.017,0.051-0.033,0.086-0.051c0.016-0.017,0.049-0.033,0.066-0.05c0.018,0,0.018-0.018,0.033-0.018
		c0.068-0.05,0.119-0.117,0.168-0.185l0.018-0.018c0.033-0.033,0.051-0.066,0.084-0.117c0,0,0-0.017,0.018-0.017
		c0.051-0.085,0.102-0.186,0.117-0.27c0.018-0.051,0.033-0.102,0.033-0.169l0,0c0.051-0.572,0.051-1.043,0.018-1.616l0,0
		c0-0.017,0-0.017,0-0.033c-0.018-0.101-0.051-0.202-0.084-0.303c-0.168-0.388-0.521-0.725-0.994-0.792
		c-0.201-0.033-0.354-0.066-0.926-0.117c-1.549-0.169-2.963-0.219-4.527-0.236l0,0c-0.152,0-0.287,0-0.389,0l0,0l0,0
		c-0.016,0-0.049,0-0.066,0c-0.201,0-0.404,0-0.605,0c-0.035,0-0.084,0-0.135,0c-0.033,0-0.068,0-0.119,0
		c-0.438,0-0.891,0.018-1.346,0.034c-1.246,0.051-2.66,0.151-3.787,0.337c0,0-0.086,0.017,0,0c-0.623,0.117-1.195,0.707-1.281,1.33
		l0,0c-0.252,2.054-0.369,4.091-0.369,6.145s0.117,4.091,0.369,6.145l0,0c0.086,0.623,0.658,1.229,1.281,1.33
		c0.033,0.017,2.541,0.286,3.787,0.336c0.455,0.018,0.893,0.034,1.346,0.034c0.035,0,0.068,0,0.119,0c0.033,0,0.084,0,0.135,0
		c0.201,0,0.404,0,0.605,0c0.018,0,0.051,0,0.066,0l0,0l0,0c0.102,0,0.236,0,0.389,0l0,0c1.564-0.017,2.963-0.067,4.527-0.236
		c0.572-0.05,0.725-0.084,0.926-0.117c0.473-0.084,0.842-0.421,0.994-0.791c0.051-0.102,0.084-0.202,0.084-0.304
		c0-0.017,0-0.017,0-0.033l0,0C108.947,74.211,108.947,73.739,108.896,73.15C108.896,73.167,108.896,73.167,108.896,73.15"/>
    <path fill="#E2000F" d="M85.041,68.42c0-0.051,0-0.085,0-0.135c0-0.236,0-0.472,0-0.69c0-0.101,0-0.186,0-0.286
		c0-0.186-0.016-0.354-0.016-0.539c0-0.101-0.018-0.219-0.018-0.319c0-0.169-0.018-0.337-0.033-0.505
		c0-0.118-0.018-0.236-0.018-0.337c-0.016-0.151-0.016-0.32-0.033-0.472c-0.018-0.118-0.018-0.235-0.033-0.354
		c-0.018-0.151-0.035-0.303-0.051-0.472c-0.018-0.117-0.018-0.235-0.033-0.37c-0.018-0.151-0.035-0.303-0.051-0.454
		c-0.018-0.118-0.035-0.253-0.051-0.37c-0.018-0.169-0.051-0.337-0.068-0.506c-0.016-0.101-0.033-0.201-0.033-0.303
		c-0.102-0.64-0.707-1.246-1.346-1.313c-2.51-0.269-5.018-0.403-7.525-0.42l0,0c-0.033,0-0.068,0-0.102,0s-0.066,0-0.084,0l0,0
		c-2.508,0-5.017,0.151-7.525,0.42c-0.64,0.067-1.246,0.657-1.347,1.313c-0.017,0.102-0.034,0.202-0.034,0.303
		c-0.017,0.169-0.05,0.337-0.067,0.506c-0.017,0.117-0.034,0.252-0.05,0.37c-0.017,0.151-0.034,0.303-0.051,0.454
		c-0.017,0.118-0.034,0.253-0.034,0.37c-0.017,0.152-0.034,0.304-0.05,0.472c-0.017,0.118-0.017,0.235-0.034,0.354
		c-0.017,0.151-0.034,0.32-0.034,0.472c0,0.118-0.017,0.235-0.017,0.337c-0.017,0.168-0.017,0.336-0.033,0.505
		c0,0.101-0.017,0.219-0.017,0.319c0,0.186-0.017,0.354-0.017,0.539c0,0.101,0,0.186,0,0.286c0,0.235,0,0.454,0,0.69
		c0,0.05,0,0.084,0,0.135v0.017c0,0.067,0,0.118,0,0.186c0,0.219,0,0.454,0,0.673v0.017c0,0.018,0,0.572,0.034,1.078
		c0,0.05,0,0.101,0,0.151c0.05,0.942,0.387,4.175,0.421,4.394c0.067,0.488,0.42,0.893,0.841,0.993
		c0.084,0.017,0.219,0.034,0.236,0.051c0.336,0.017,0.707,0.033,1.061,0.033c0.15,0,0.285,0,0.438,0h0.017c0.017,0,0.05,0,0.067,0
		l0,0c0.151,0,0.303-0.017,0.455-0.017h0.016c0.018,0,0.034,0,0.051,0c0.034,0,0.051,0,0.084,0h0.018l0,0h0.017
		c0.05,0,0.101,0,0.151-0.017c0.506-0.051,0.909-0.522,0.993-1.027c0.017-0.135,0.034-0.438,0.034-0.438v-0.151V73.79
		c0,0,0-9.191,0.017-9.394c0.017-0.253,0.268-0.505,0.504-0.522c0.203-0.017,0.404-0.017,0.605-0.017c0.203,0,0.404,0,0.607,0.017
		c0.234,0.018,0.471,0.27,0.504,0.522c0.018,0.202,0.018,9.596,0.018,9.596v0.572v0.151c0,0,0,0.051,0.018,0.135v0.135
		c0,0.05,0.016,0.101,0.016,0.151c0,0,0,0,0,0.017c0,0,0,0,0,0.017l0,0c0.051,0.421,0.371,0.792,0.74,0.943c0,0,0,0,0.018,0
		c0.033,0.017,0.068,0.017,0.102,0.033c0.033,0,0.051,0.017,0.084,0.017c0.016,0,0.033,0,0.051,0.018c0.016,0,0.033,0,0.066,0l0,0
		c0.051,0,0.102,0,0.152,0.017c0.016,0,0.033,0,0.033,0h0.018c0.033,0,0.049,0,0.084,0c0.135,0,0.252,0.017,0.387,0.017
		c0.018,0,0.018,0,0.033,0h0.018c0.051,0,0.117,0,0.168,0s0.117,0,0.168,0l0,0c0.018,0,0.018,0,0.033,0c0.018,0,0.035,0,0.068,0
		c0.018,0,0.033,0,0.066,0c0.018,0,0.018,0,0.035,0l0,0c0.049,0,0.117,0,0.168,0s0.117,0,0.168,0h0.018c0.016,0,0.016,0,0.033,0
		c0.135,0,0.27-0.017,0.387-0.017c0.033,0,0.051,0,0.084,0h0.018c0.016,0,0.033,0,0.033,0c0.051,0,0.102,0,0.152-0.017l0,0
		c0.016,0,0.033,0,0.066,0c0.018,0,0.033,0,0.051-0.018c0.033,0,0.051-0.017,0.084-0.017c0.033-0.017,0.068-0.017,0.102-0.033
		c0,0,0,0,0.016,0c0.371-0.151,0.691-0.522,0.742-0.943l0,0c0,0,0,0,0-0.017c0,0,0,0,0-0.017c0.016-0.051,0.016-0.102,0.016-0.151
		V74.85c0.018-0.084,0.018-0.135,0.018-0.135v-0.151v-0.572c0,0,0-9.411,0.018-9.596c0.016-0.253,0.268-0.505,0.504-0.522
		c0.203-0.017,0.404-0.017,0.605-0.017c0.203,0,0.404,0,0.607,0.017c0.234,0.018,0.471,0.27,0.504,0.522
		c0.018,0.202,0.018,9.394,0.018,9.394v0.572v0.151c0,0,0,0.303,0.033,0.438c0.084,0.505,0.488,0.977,0.994,1.027
		c0.051,0,0.1,0,0.15,0.017h0.018l0,0h0.016c0.035,0,0.051,0,0.086,0c0.016,0,0.033,0,0.049,0h0.018
		c0.152,0.017,0.303,0.017,0.455,0.017l0,0c0.016,0,0.051,0,0.066,0h0.018c0.15,0,0.285,0,0.438,0c0.354,0,0.725-0.017,1.061-0.033
		c0.018,0,0.152-0.017,0.236-0.051c0.42-0.118,0.773-0.505,0.842-0.993c0.033-0.202,0.369-3.451,0.42-4.394c0-0.051,0-0.102,0-0.151
		c0.033-0.522,0.033-1.078,0.033-1.078v-0.017c0-0.219,0-0.454,0-0.673C85.041,68.537,85.041,68.487,85.041,68.42L85.041,68.42"/>
</g>
</svg>
