<?xml version="1.0" encoding="utf-8"?>
<!-- Generator: Adobe Illustrator 14.0.0, SVG Export Plug-In . SVG Version: 6.00 Build 43363)  -->
<!DOCTYPE svg PUBLIC "-//W3C//DTD SVG 1.1//EN" "http://www.w3.org/Graphics/SVG/1.1/DTD/svg11.dtd">
<svg version="1.1" id="Ebene_1" xmlns="http://www.w3.org/2000/svg" xmlns:xlink="http://www.w3.org/1999/xlink" x="0px" y="0px"
	 width="1024px" height="303px" viewBox="0 0 1024 303" enable-background="new 0 0 1024 303" xml:space="preserve">
<polygon points="545.151,302.701 545.151,161.82 599.252,161.82 646.607,234.023 646.607,161.82 697.258,161.82 697.258,302.701 
	645.564,302.701 595.654,237.296 595.654,302.701 "/>
<polygon points="715.791,162.225 715.791,303.102 842.729,303.102 842.729,272.409 769.853,272.409 769.853,248.17 837.084,248.17 
	837.084,217.854 769.853,217.854 769.853,196.895 840.564,196.895 840.564,162.225 "/>
<path d="M952.098,215.311c0,5.209-3.613,7.49-7.447,7.49h-31.037v-26.02h30.638c5.612,0,7.847,2.713,7.847,7.918V215.311
	 M998.179,255.394c-4.664-8.38-7.283-13.151-14.049-14.092c0,0,0-0.11,0-0.126c17.334-2.096,21.724-7.07,21.567-20.773v-34.651
	c0-13.974-2.814-23.793-18.392-23.793H857.64v141.144h55.974v-54.756c0,0,18.8,0.008,18.925,0.008
	c4.688-0.043,6.805,5.041,7.98,7.271c1.216,2.313,24.131,47.477,24.131,47.477h58.891
	C1023.54,303.102,999.362,257.502,998.179,255.394"/>
<path d="M440.286,197.134h87.141v-35.176H381.474c-8.894,0-16.93,3.959-12.481,20.536l30.962,104.414
	c2.022,8.095,5.049,15.953,21.763,16.193h105.708v-85.303h-70.525v30.15h20.305v22.672h-15.718c-12.579,0-14.836-8.446-17.09-14.738
	c-0.083-0.219-12.876-44.842-13.053-45.422C428.1,200.027,432.686,197.134,440.286,197.134"/>
<polygon points="-0.457,162.225 41.807,303.102 89.067,303.102 111.367,239.209 132.577,303.102 177.619,303.102 222.398,162.225 
	171.778,162.225 151.113,227.136 130.425,162.225 92.085,162.225 72.627,227.136 49.87,162.225 "/>
<path d="M271.297,237.453l12.265-40.711h17.313l12.743,40.711H271.297z M343.08,162.225H239.555l-43.768,140.877h55.575
	l11.175-36.172h60.137l10.909,36.172h54.285L343.08,162.225z"/>
<polygon points="244.051,147.823 340.407,147.635 292.907,-0.313 "/>
</svg>
